<svg xmlns="http://www.w3.org/2000/svg" viewBox="0 0 1280 520" width="1280" height="520" role="img" aria-label="Jurisdiction scoping across the five MPLADS roles"><title>Jurisdiction scoping across the five MPLADS roles</title>
<defs>
  <linearGradient id="ground" x1="0" y1="0" x2="0" y2="1">
    <stop offset="0%" stop-color="#0B1220"/>
    <stop offset="60%" stop-color="#0D1829"/>
    <stop offset="100%" stop-color="#0A101C"/>
  </linearGradient>
  <linearGradient id="sweep" x1="0" y1="0" x2="1" y2="0">
    <stop offset="0%" stop-color="#2a78d6" stop-opacity="0"/>
    <stop offset="50%" stop-color="#2a78d6" stop-opacity="0.55"/>
    <stop offset="100%" stop-color="#2a78d6" stop-opacity="0"/>
  </linearGradient>
  <radialGradient id="glow" cx="50%" cy="50%" r="50%">
    <stop offset="0%" stop-color="#2a78d6" stop-opacity="0.30"/>
    <stop offset="100%" stop-color="#2a78d6" stop-opacity="0"/>
  </radialGradient>
  <radialGradient id="glowWarm" cx="50%" cy="50%" r="50%">
    <stop offset="0%" stop-color="#eb6834" stop-opacity="0.22"/>
    <stop offset="100%" stop-color="#eb6834" stop-opacity="0"/>
  </radialGradient>
</defs>
<rect width="1280" height="520" fill="url(#ground)"/><ellipse cx="470" cy="300" rx="400" ry="230" fill="url(#glow)"/><text x="48" y="50" font-family="'Segoe UI',Roboto,Helvetica,Arial,sans-serif" font-size="21" font-weight="700" fill="#FFFFFF">One filter, five jurisdictions</text><text x="48" y="74" font-family="'Segoe UI',Roboto,Helvetica,Arial,sans-serif" font-size="13" fill="#8A98B0">Same queries for everyone. Only the scope differs &#8212; there is no &#8220;national mode&#8221; switch to get wrong.</text><polygon points="314.12,382.00 470.00,472.00 470.00,492.00 314.12,402.00" fill="#0F2B56" opacity="1.0"/><polygon points="625.88,382.00 470.00,472.00 470.00,492.00 625.88,402.00" fill="#133970" opacity="1.0"/><polygon points="470.00,292.00 625.88,382.00 470.00,472.00 314.12,382.00" fill="#1B4F9C" opacity="1.0"/><polygon points="470.00,292.00 625.88,382.00 470.00,472.00 314.12,382.00" fill="none" stroke="#6B8DBF" stroke-width="1" opacity="0.9"/><line x1="308" y1="382" x2="313" y2="382" stroke="#1B4F9C" stroke-width="1.5" opacity="0.85"/><circle cx="313" cy="382" r="3" fill="#1B4F9C"/><text x="300" y="381" font-family="'Segoe UI',Roboto,Helvetica,Arial,sans-serif" font-size="12" font-weight="700" fill="#FFFFFF" text-anchor="end" letter-spacing="0.5">MINISTRY / MoSPI</text><text x="300" y="396" font-family="'Segoe UI',Roboto,Helvetica,Arial,sans-serif" font-size="10.5" fill="#8A98B0" text-anchor="end">every state and UT</text><polygon points="340.10,313.00 470.00,388.00 470.00,408.00 340.10,333.00" fill="#0A1D3B" opacity="1.0"/><polygon points="599.90,313.00 470.00,388.00 470.00,408.00 599.90,333.00" fill="#0D264D" opacity="1.0"/><polygon points="470.00,238.00 599.90,313.00 470.00,388.00 340.10,313.00" fill="#12356B" opacity="1.0"/><polygon points="470.00,238.00 599.90,313.00 470.00,388.00 340.10,313.00" fill="none" stroke="#657C9F" stroke-width="1" opacity="0.9"/><line x1="334" y1="313" x2="339" y2="313" stroke="#12356B" stroke-width="1.5" opacity="0.85"/><circle cx="339" cy="313" r="3" fill="#12356B"/><text x="326" y="312" font-family="'Segoe UI',Roboto,Helvetica,Arial,sans-serif" font-size="12" font-weight="700" fill="#FFFFFF" text-anchor="end" letter-spacing="0.5">STATE NODAL AUTHORITY</text><text x="326" y="327" font-family="'Segoe UI',Roboto,Helvetica,Arial,sans-serif" font-size="10.5" fill="#8A98B0" text-anchor="end">one state</text><polygon points="366.08,244.00 470.00,304.00 470.00,324.00 366.08,264.00" fill="#174276" opacity="1.0"/><polygon points="573.92,244.00 470.00,304.00 470.00,324.00 573.92,264.00" fill="#1E569A" opacity="1.0"/><polygon points="470.00,184.00 573.92,244.00 470.00,304.00 366.08,244.00" fill="#2a78d6" opacity="1.0"/><polygon points="470.00,184.00 573.92,244.00 470.00,304.00 366.08,244.00" fill="none" stroke="#75A7E4" stroke-width="1" opacity="0.9"/><line x1="360" y1="244" x2="365" y2="244" stroke="#2a78d6" stroke-width="1.5" opacity="0.85"/><circle cx="365" cy="244" r="3" fill="#2a78d6"/><text x="352" y="243" font-family="'Segoe UI',Roboto,Helvetica,Arial,sans-serif" font-size="12" font-weight="700" fill="#FFFFFF" text-anchor="end" letter-spacing="0.5">DISTRICT AUTHORITY</text><text x="352" y="258" font-family="'Segoe UI',Roboto,Helvetica,Arial,sans-serif" font-size="10.5" fill="#8A98B0" text-anchor="end">one district</text><polygon points="392.06,175.00 470.00,220.00 470.00,240.00 392.06,195.00" fill="#0F6043" opacity="1.0"/><polygon points="547.94,175.00 470.00,220.00 470.00,240.00 547.94,195.00" fill="#137E58" opacity="1.0"/><polygon points="470.00,130.00 547.94,175.00 470.00,220.00 392.06,175.00" fill="#1baf7a" opacity="1.0"/><polygon points="470.00,130.00 547.94,175.00 470.00,220.00 392.06,175.00" fill="none" stroke="#6BCBA9" stroke-width="1" opacity="0.9"/><line x1="386" y1="175" x2="391" y2="175" stroke="#1baf7a" stroke-width="1.5" opacity="0.85"/><circle cx="391" cy="175" r="3" fill="#1baf7a"/><text x="378" y="174" font-family="'Segoe UI',Roboto,Helvetica,Arial,sans-serif" font-size="12" font-weight="700" fill="#FFFFFF" text-anchor="end" letter-spacing="0.5">MEMBER OF PARLIAMENT</text><text x="378" y="189" font-family="'Segoe UI',Roboto,Helvetica,Arial,sans-serif" font-size="10.5" fill="#8A98B0" text-anchor="end">own recommended works</text><polygon points="418.04,112.00 470.00,142.00 470.00,162.00 418.04,132.00" fill="#443B7B" opacity="1.0"/><polygon points="521.96,112.00 470.00,142.00 470.00,162.00 521.96,132.00" fill="#594EA1" opacity="1.0"/><polygon points="470.00,82.00 521.96,112.00 470.00,142.00 418.04,112.00" fill="#7C6CE0" opacity="1.0"/><polygon points="470.00,82.00 521.96,112.00 470.00,142.00 418.04,112.00" fill="none" stroke="#AA9FEB" stroke-width="1" opacity="0.9"/><line x1="412" y1="112" x2="417" y2="112" stroke="#7C6CE0" stroke-width="1.5" opacity="0.85"/><circle cx="417" cy="112" r="3" fill="#7C6CE0"/><text x="404" y="111" font-family="'Segoe UI',Roboto,Helvetica,Arial,sans-serif" font-size="12" font-weight="700" fill="#FFFFFF" text-anchor="end" letter-spacing="0.5">IMPLEMENTING AGENCY</text><text x="404" y="126" font-family="'Segoe UI',Roboto,Helvetica,Arial,sans-serif" font-size="10.5" fill="#8A98B0" text-anchor="end">own assigned works</text><rect x="820" y="152" width="416" height="238" rx="10" fill="#070C15" stroke="#22304A" stroke-width="1.2"/><circle cx="842" cy="174" r="4.5" fill="#E2564E" opacity="0.8"/><circle cx="858" cy="174" r="4.5" fill="#E89B3C" opacity="0.8"/><circle cx="874" cy="174" r="4.5" fill="#1baf7a" opacity="0.8"/><text x="894" y="178" font-family="'Segoe UI',Roboto,Helvetica,Arial,sans-serif" font-size="10.5" fill="#8A98B0">src/lib/scope.ts</text><text x="842" y="210" font-family="ui-monospace,SFMono-Regular,Menlo,monospace" font-size="11.5" fill="#8FB9EE">const { scope } = await requireSession();</text><text x="842" y="252" font-family="ui-monospace,SFMono-Regular,Menlo,monospace" font-size="11.5" fill="#CBD9EC">prisma.work.findMany({ where: scope.work })</text><text x="842" y="273" font-family="ui-monospace,SFMono-Regular,Menlo,monospace" font-size="11.5" fill="#CBD9EC">prisma.alert.count({ where: scope.alert })</text><text x="842" y="315" font-family="ui-monospace,SFMono-Regular,Menlo,monospace" font-size="11.5" fill="#7C8AA3">// Missing jurisdiction -&gt; DENY_ALL</text><text x="842" y="336" font-family="ui-monospace,SFMono-Regular,Menlo,monospace" font-size="11.5" fill="#7C8AA3">// A broken account sees NOTHING,</text><text x="842" y="357" font-family="ui-monospace,SFMono-Regular,Menlo,monospace" font-size="11.5" fill="#7C8AA3">// never everything.</text><rect x="820" y="152" width="416" height="238" rx="10" fill="none" stroke="#2a78d6" stroke-width="1.2" opacity="0.5"><animate attributeName="opacity" values="0.15;0.6;0.15" dur="3.2s" repeatCount="indefinite"/></rect></svg>